<svg width="24" height="23" viewBox="0 0 24 23" fill="none" xmlns="http://www.w3.org/2000/svg">
<path d="M11.9766 7.54941C9.89678 7.54941 8.19951 9.24671 8.19951 11.3265C8.19951 13.4064 9.89678 15.1036 11.9766 15.1036C14.0563 15.1036 15.7536 13.4064 15.7536 11.3265C15.7536 9.24671 14.0563 7.54941 11.9766 7.54941ZM23.3049 11.3265C23.3049 9.76241 23.319 8.21246 23.2312 6.65118C23.1434 4.83771 22.7297 3.22825 21.4036 1.90215C20.0747 0.573219 18.4681 0.162355 16.6547 0.074515C15.0906 -0.013325 13.5407 0.000842822 11.9794 0.000842822C10.4153 0.000842822 8.86539 -0.013325 7.30413 0.074515C5.49069 0.162355 3.88127 0.576053 2.55519 1.90215C1.22628 3.23109 0.815428 4.83771 0.72759 6.65118C0.639751 8.2153 0.653919 9.76525 0.653919 11.3265C0.653919 12.8878 0.639751 14.4406 0.72759 16.0019C0.815428 17.8154 1.22912 19.4248 2.55519 20.7509C3.8841 22.0798 5.49069 22.4907 7.30413 22.5785C8.86822 22.6664 10.4181 22.6522 11.9794 22.6522C13.5435 22.6522 15.0934 22.6664 16.6547 22.5785C18.4681 22.4907 20.0775 22.077 21.4036 20.7509C22.7325 19.422 23.1434 17.8154 23.2312 16.0019C23.3219 14.4406 23.3049 12.8906 23.3049 11.3265ZM11.9766 17.1381C8.76055 17.1381 6.16507 14.5426 6.16507 11.3265C6.16507 8.11045 8.76055 5.51493 11.9766 5.51493C15.1926 5.51493 17.7881 8.11045 17.7881 11.3265C17.7881 14.5426 15.1926 17.1381 11.9766 17.1381ZM18.0261 6.63418C17.2752 6.63418 16.6688 6.0278 16.6688 5.27691C16.6688 4.52602 17.2752 3.91964 18.0261 3.91964C18.7769 3.91964 19.3833 4.52602 19.3833 5.27691C19.3835 5.45521 19.3486 5.6318 19.2805 5.79658C19.2123 5.96135 19.1124 6.11106 18.9863 6.23714C18.8602 6.36322 18.7105 6.46319 18.5457 6.53132C18.381 6.59945 18.2044 6.6344 18.0261 6.63418Z" fill="white"/>
</svg>
