<svg width="23" height="23" viewBox="0 0 23 23" fill="none" xmlns="http://www.w3.org/2000/svg">
<path d="M22.0531 0H1.21227C0.711076 0 0.306152 0.404923 0.306152 0.906122V21.7469C0.306152 22.2481 0.711076 22.6531 1.21227 22.6531H22.0531C22.5543 22.6531 22.9592 22.2481 22.9592 21.7469V0.906122C22.9592 0.404923 22.5543 0 22.0531 0ZM7.02562 19.3032H3.66447V8.49207H7.02562V19.3032ZM5.34646 7.01395C4.96115 7.01395 4.58449 6.8997 4.26412 6.68563C3.94374 6.47156 3.69404 6.1673 3.54659 5.81132C3.39914 5.45534 3.36056 5.06363 3.43573 4.68572C3.5109 4.30782 3.69644 3.96069 3.9689 3.68823C4.24135 3.41578 4.58848 3.23023 4.96639 3.15506C5.3443 3.07989 5.73601 3.11847 6.09199 3.26592C6.44797 3.41337 6.75223 3.66308 6.9663 3.98345C7.18036 4.30382 7.29462 4.68048 7.29462 5.06579C7.29179 6.14181 6.41965 7.01395 5.34646 7.01395ZM19.6094 19.3032H16.2511V14.0449C16.2511 12.7905 16.2284 11.1793 14.504 11.1793C12.7568 11.1793 12.4878 12.5441 12.4878 13.9543V19.3032H9.13235V8.49207H12.3547V9.97018H12.4001C12.8475 9.12069 13.9433 8.22306 15.58 8.22306C18.9836 8.22306 19.6094 10.4629 19.6094 13.3738V19.3032Z" fill="white"/>
</svg>
