<svg width="28" height="20" viewBox="0 0 28 20" fill="none" xmlns="http://www.w3.org/2000/svg">
<path d="M26.8362 3.46571C26.6858 2.89469 26.3908 2.37395 25.9808 1.95562C25.5709 1.53728 25.0602 1.23601 24.5001 1.08197C22.4383 0.516846 14.1735 0.516846 14.1735 0.516846C14.1735 0.516846 5.90869 0.516846 3.8469 1.07896C3.28654 1.23251 2.77568 1.5336 2.36562 1.95202C1.95557 2.37043 1.66076 2.89144 1.51081 3.46271C0.959228 5.56689 0.959229 9.95562 0.959229 9.95562C0.959229 9.95562 0.959228 14.3444 1.51081 16.4455C1.81462 17.6058 2.7113 18.5197 3.8469 18.8293C5.90869 19.3944 14.1735 19.3944 14.1735 19.3944C14.1735 19.3944 22.4383 19.3944 24.5001 18.8293C25.6387 18.5197 26.5324 17.6058 26.8362 16.4455C27.3878 14.3444 27.3878 9.95562 27.3878 9.95562C27.3878 9.95562 27.3878 5.56689 26.8362 3.46571ZM11.5484 13.9836V5.92761L18.3915 9.92556L11.5484 13.9836Z" fill="white"/>
</svg>
