<svg width="78" height="78" viewBox="0 0 78 78" fill="none" xmlns="http://www.w3.org/2000/svg">
<path d="M67.75 59H57.75V47.75H67.75V59Z" fill="#D2CBFF"/>
<path d="M67.75 44H57.75V32.75H67.75V44Z" fill="#D2CBFF"/>
<path d="M20.25 59H10.25V47.75H20.25V59Z" fill="#D2CBFF"/>
<path d="M20.25 44H10.25V32.75H20.25V44Z" fill="#D2CBFF"/>
<path d="M20.25 76.5H10.25V65.25H20.25V76.5Z" fill="#D2CBFF"/>
<path d="M45.25 59H32.75V45.25H45.25V59Z" fill="#D2CBFF"/>
<path d="M45.25 41.5H32.75V27.75H45.25V41.5Z" fill="#D2CBFF"/>
<path d="M67.75 76.5H57.75V65.25H67.75V76.5Z" fill="#D2CBFF"/>
<path d="M45.25 76.5H32.75V62.75H45.25V76.5Z" fill="#D2CBFF"/>
<path d="M72.75 75.25V30.25H76.8088L71.2525 5.25H65.25V4C65.25 1.9325 63.5675 0.25 61.5 0.25H59C56.9325 0.25 55.25 1.9325 55.25 4V5.25H22.75V4C22.75 1.9325 21.0675 0.25 19 0.25H16.5C14.4325 0.25 12.75 1.9325 12.75 4V5.25H6.7475L1.19125 30.25H5.25V75.25H0.25V77.75H77.75V75.25H72.75ZM7.75 45.25H22.75V57.75H7.75V45.25ZM70.25 57.75H55.25V45.25H70.25V57.75ZM23.1012 22.75L24.9762 15.25H53.0238L54.8988 22.75H23.1012ZM47.75 57.75H30.25V42.75H47.75V57.75ZM47.75 40.25H30.25V25.25H47.75V40.25ZM25.25 25.25H27.75V75.25H25.25V25.25ZM30.25 60.25H47.75V75.25H30.25V60.25ZM50.25 25.25H52.75V75.25H50.25V25.25ZM55.25 60.25H70.25V75.25H55.25V60.25ZM70.25 42.75H55.25V30.25H70.25V42.75ZM57.75 4C57.75 3.31125 58.3112 2.75 59 2.75H61.5C62.1888 2.75 62.75 3.31125 62.75 4V9C62.75 9.68875 62.1888 10.25 61.5 10.25H59C58.3112 10.25 57.75 9.68875 57.75 9V4ZM15.25 4C15.25 3.31125 15.8112 2.75 16.5 2.75H19C19.6887 2.75 20.25 3.31125 20.25 4V9C20.25 9.68875 19.6887 10.25 19 10.25H16.5C15.8112 10.25 15.25 9.68875 15.25 9V4ZM8.7525 7.75H12.75V9C12.75 11.0675 14.4325 12.75 16.5 12.75H19C21.0675 12.75 22.75 11.0675 22.75 9V7.75H55.25V9C55.25 11.0675 56.9325 12.75 59 12.75H61.5C63.5675 12.75 65.25 11.0675 65.25 9V7.75H69.2475L73.6925 27.75H55.25V25.25H58.1012L54.9762 12.75H23.0238L19.8988 25.25H22.75V27.75H4.30875L8.7525 7.75ZM22.75 30.25V42.75H7.75V30.25H22.75ZM7.75 60.25H22.75V75.25H7.75V60.25Z" fill="#16322E"/>
</svg>
