<svg width="88" height="88" viewBox="0 0 88 88" fill="none" xmlns="http://www.w3.org/2000/svg">
<path d="M67.767 7.4375H59.9736C56.6253 7.4375 53.3052 8.54422 50.6277 10.5537C49.1202 11.683 48.2188 13.483 48.2188 15.3687C48.2188 16.0198 48.3242 16.6639 48.5281 17.2742C46.565 18.7466 45.4062 21.0514 45.4062 23.5236C45.4062 24.1606 45.485 24.7977 45.6397 25.4178L47.053 31.0723H47.1627C47.8123 29.5789 49.2973 28.5312 51.0312 28.5312H52.4516C52.5289 26.0239 54.2502 23.8597 56.697 23.2466L58.0625 22.9062C58.0625 24.4602 59.3211 25.7187 60.875 25.7187H72.125C73.6789 25.7187 74.9375 26.9773 74.9375 28.5312H76.3438C78.0734 28.5312 79.5556 29.5747 80.2067 31.0639H80.3656L81.6931 24.425C81.8759 23.5109 81.9688 22.573 81.9688 21.6392C81.9688 13.8078 75.5984 7.4375 67.767 7.4375Z" fill="#D2CBFF"/>
<path d="M35.5625 36.9688V22.7066C37.9813 22.078 39.7812 19.8955 39.7812 17.2813V16.6667L23.5588 1.65078L23.473 1.57625C21.552 0.0673469 18.7142 -0.00577819 16.6245 1.65078L0.40625 16.6667V17.2813C0.40625 19.8955 2.20625 22.078 4.625 22.7066V36.9688H35.5625ZM24.3125 34.1563H15.875V27.125C15.875 24.7991 17.7678 22.9063 20.0938 22.9063C22.4197 22.9063 24.3125 24.7991 24.3125 27.125V34.1563ZM27.125 34.1563V27.125C27.125 23.248 23.9708 20.0938 20.0938 20.0938C16.2167 20.0938 13.0625 23.248 13.0625 27.125V34.1563H7.4375V22.0822L20.0938 9.42594L32.75 22.0822V34.1563H27.125ZM3.275 17.8424L18.4498 3.78688C19.3681 3.06266 20.7631 3.05141 21.6955 3.75735L36.9125 17.8424C36.6861 18.9533 35.803 19.828 34.6878 20.0417L20.0938 5.44907L5.49969 20.0431C4.38453 19.8294 3.50141 18.9533 3.275 17.8424Z" fill="#16322E"/>
<path d="M70.3616 51.1353L69.785 49.407C73.5355 48.5492 76.3438 45.1939 76.3438 41.1875V38.375C79.4459 38.375 81.9688 35.8522 81.9688 32.75C81.9688 29.6478 79.4459 27.125 76.3438 27.125H76.085C75.5028 25.4923 73.9559 24.3125 72.125 24.3125H60.875C60.1002 24.3125 59.4688 23.6825 59.4688 22.9062C59.4688 22.13 60.1002 21.5 60.875 21.5H62.2812V18.6875H60.875C58.9428 18.6875 57.3088 19.9939 56.8123 21.7686L56.3567 21.8825C53.7481 22.535 51.8145 24.5923 51.2323 27.125H51.0312C47.9291 27.125 45.4062 29.6478 45.4062 32.75C45.4062 35.8522 47.9291 38.375 51.0312 38.375V41.1875C51.0312 45.1939 53.8395 48.5492 57.59 49.407L56.9797 51.238L46.9236 53.4711C45.8141 53.7186 44.675 53.8438 43.5388 53.8438C43.5373 53.8438 43.5373 53.8438 43.5345 53.8438C38.8869 53.8438 34.512 51.7948 31.5364 48.223L29.9375 46.3034V44C29.9375 41.6741 28.0447 39.7812 25.7188 39.7812H13.0625V41.1875C13.0625 45.0645 16.2167 48.2188 20.0938 48.2188H20.562L21.4634 50.383C25.1886 59.3197 33.8497 65.0938 43.5317 65.0938H48.2188V87.5938H63.5581H65.0938H72.125C80.6539 87.5938 87.5938 80.6539 87.5938 72.125V70.7778C87.5938 60.8708 80.097 52.4192 70.3616 51.1353ZM79.1562 32.75C79.1562 34.3011 77.8948 35.5625 76.3438 35.5625V29.9375C77.8948 29.9375 79.1562 31.1989 79.1562 32.75ZM48.2188 32.75C48.2188 31.1989 49.4802 29.9375 51.0312 29.9375V35.5625C49.4802 35.5625 48.2188 34.3011 48.2188 32.75ZM84.7784 70.7188H79.1562V65.0938H76.3438V71.7945C76.3438 74.5564 74.3666 76.8894 71.6427 77.3422L69.9777 77.6192L69.3013 76.6039C69.2717 76.5589 69.2352 76.5209 69.2056 76.4773C69.8159 75.7025 70.2744 74.8152 70.505 73.8688C71.1912 71.0633 70.1548 68.2114 67.9062 66.5253V56.6562C67.9062 56.2189 67.8205 55.8041 67.6967 55.4075L69.7006 53.9056C78.1747 54.8717 84.7475 62.1462 84.7784 70.7188ZM60.1859 74.4495C59.7317 73.7633 59.4688 72.9603 59.4688 72.125C59.4688 70.6231 60.2591 69.2661 61.5823 68.4955L62.2812 68.0891V56.6562C62.2812 55.88 62.9127 55.25 63.6875 55.25C64.4623 55.25 65.0938 55.88 65.0938 56.6562V68.0891L65.7927 68.4955C67.4591 69.4644 68.2353 71.3122 67.7741 73.2036C67.6573 73.6831 67.4352 74.1373 67.1469 74.5508C66.0809 73.8997 64.8491 73.5312 63.5581 73.5312C62.3277 73.5312 61.1872 73.8814 60.1859 74.4495ZM66.8923 49.625L67.6573 51.9214L66.0219 53.1477C65.3539 52.7005 64.5509 52.4375 63.6875 52.4375C62.8241 52.4375 62.0211 52.7005 61.3517 53.1477L59.7162 51.9214L60.4827 49.625H66.8923ZM53.8438 41.1875V28.7042C53.8438 26.772 55.1488 25.0944 57.0191 24.6162C57.6758 26.0928 59.1566 27.125 60.875 27.125H72.125C72.8998 27.125 73.5312 27.755 73.5312 28.5312V41.1875C73.5312 44.2897 71.0084 46.8125 67.9062 46.8125H59.4688C56.3666 46.8125 53.8438 44.2897 53.8438 41.1875ZM16.1155 42.5938H25.7188C26.4936 42.5938 27.125 43.2237 27.125 44V45.4062H20.0938C18.26 45.4062 16.6962 44.2306 16.1155 42.5938ZM24.0608 49.3016L23.6094 48.2188H27.8717L29.375 50.023C32.0708 53.2573 35.7411 55.4202 39.7798 56.2569V61.9339C32.8077 60.6852 26.855 56.0094 24.0608 49.3016ZM48.2188 59.4688V62.2812H43.5317C43.2167 62.2812 42.9059 62.2602 42.5938 62.2461V56.6028C42.9073 56.6183 43.2181 56.6548 43.5345 56.6548H43.5388C44.8803 56.6548 46.2233 56.5086 47.5325 56.2161L57.7348 53.9492L59.4688 55.25H56.6562V58.0625H59.4688V60.875H53.8438V63.6875H59.4688V66.5295C57.7166 67.85 56.6562 69.927 56.6562 72.125C56.6562 73.6466 57.1583 75.1119 58.0527 76.3156C57.1878 77.4688 56.6562 78.8848 56.6562 80.4331V80.6919C56.6562 82.2275 57.178 83.6338 58.0288 84.7812H51.0312V59.4688H48.2188ZM72.125 84.7812H65.0938H63.5581C61.3039 84.7812 59.4688 82.9461 59.4688 80.6919V80.4331C59.4688 78.1789 61.3039 76.3438 63.5581 76.3438C64.9292 76.3438 66.2005 77.0244 66.9613 78.1648L68.6473 80.6933L72.1053 80.1167C75.6027 79.5345 78.2633 76.8795 78.9608 73.5312H84.6983C83.9966 79.8495 78.6275 84.7812 72.125 84.7812Z" fill="#16322E"/>
<path d="M70.7188 36.9687V35.5625H56.6562V36.9687C56.6562 40.8458 59.8105 44 63.6875 44C67.5645 44 70.7188 40.8458 70.7188 36.9687ZM59.7092 38.375H67.6644C67.0836 40.0119 65.5198 41.1875 63.6861 41.1875C61.8523 41.1875 60.29 40.0119 59.7092 38.375Z" fill="#16322E"/>
<path d="M69.3125 32.75C70.0892 32.75 70.7188 32.1204 70.7188 31.3437C70.7188 30.5671 70.0892 29.9375 69.3125 29.9375C68.5358 29.9375 67.9062 30.5671 67.9062 31.3437C67.9062 32.1204 68.5358 32.75 69.3125 32.75Z" fill="#16322E"/>
<path d="M58.0625 32.75C58.8392 32.75 59.4688 32.1204 59.4688 31.3437C59.4688 30.5671 58.8392 29.9375 58.0625 29.9375C57.2858 29.9375 56.6562 30.5671 56.6562 31.3437C56.6562 32.1204 57.2858 32.75 58.0625 32.75Z" fill="#16322E"/>
</svg>
