<svg width="88" height="88" viewBox="0 0 88 88" fill="none" xmlns="http://www.w3.org/2000/svg">
<path d="M47.1584 42.5938H40.8416C34.8298 42.5938 29.9375 47.4861 29.9375 53.4978C29.9375 54.9294 30.2145 56.3272 30.7587 57.6505L31.1173 58.5209H31.4591C31.8922 56.6492 33.56 55.25 35.5625 55.25H36.9688C36.9688 53.6961 38.2273 52.4375 39.7812 52.4375C42.5319 54.2713 45.7634 55.2486 49.0695 55.25H51.0312H52.4375C54.44 55.25 56.1078 56.6492 56.5395 58.5209H56.8813L57.2398 57.6505C57.7855 56.3272 58.0625 54.9294 58.0625 53.4978C58.0625 47.4861 53.1702 42.5938 47.1584 42.5938Z" fill="#D2CBFF"/>
<path d="M49.625 27.125C47.2991 27.125 45.4062 25.2322 45.4062 22.9062C45.4062 20.5803 47.2991 18.6875 49.625 18.6875C51.9509 18.6875 53.8438 20.5803 53.8438 22.9062C53.8438 25.2322 51.9509 27.125 49.625 27.125Z" fill="#D2CBFF"/>
<path d="M51.6444 71.533L49.3789 70.9662L49.0541 69.6697C50.6909 68.667 51.9003 67.0344 52.2955 65.0952H52.4375C55.5397 65.0952 58.0625 62.5723 58.0625 59.4702C58.0625 56.368 55.5397 53.8452 52.4375 53.8452H51.0312H49.0695C46.0306 53.8452 43.0887 52.9536 40.5617 51.2689L40.2073 51.0312H39.7812C37.9503 51.0312 36.4034 52.2111 35.8212 53.8438H35.5625C32.4603 53.8438 29.9375 56.3666 29.9375 59.4688C29.9375 62.5709 32.4603 65.0938 35.5625 65.0938H35.7045C36.0997 67.0344 37.3091 68.667 38.9459 69.6683L38.6225 70.9634L36.3711 71.5231C30.9275 72.8787 27.125 77.7416 27.125 83.3511V87.5938H60.875V83.3764C60.8848 77.7669 57.0894 72.897 51.6444 71.533ZM55.25 59.4688C55.25 61.0198 53.9886 62.2812 52.4375 62.2812V56.6562C53.9886 56.6562 55.25 57.9177 55.25 59.4688ZM32.75 59.4688C32.75 57.9177 34.0114 56.6562 35.5625 56.6562V62.2812C34.0114 62.2812 32.75 61.0198 32.75 59.4688ZM42.1437 77.6178L39.4494 80.3122L38.7294 73.8364L39.2159 73.7155L42.1437 77.6178ZM44 79.7384L49.0428 84.7812H38.9572L44 79.7384ZM45.8562 77.6178L48.7826 73.7155L49.2692 73.8378L48.5492 80.3122L45.8562 77.6178ZM38.375 55.25C38.375 54.5947 38.8264 54.042 39.4339 53.8873C42.3266 55.7 45.6453 56.6562 49.0695 56.6562H49.625V63.6875C49.625 66.0134 47.7322 67.9062 45.4062 67.9062H42.5937C40.2678 67.9062 38.375 66.0134 38.375 63.6875V55.25ZM42.5937 70.7188H45.4062C45.7437 70.7188 46.0672 70.6653 46.392 70.6189L46.6916 71.817L44 75.4058L41.3084 71.817L41.608 70.6189C41.9328 70.6653 42.2562 70.7188 42.5937 70.7188ZM29.9375 83.3511C29.9375 79.415 32.383 75.9823 35.9872 74.6141L37.1164 84.7812H29.9375V83.3511ZM58.0625 84.7812H50.8836L52.0114 74.6211C55.6226 75.9922 58.0681 79.4333 58.0625 83.375V84.7812Z" fill="#16322E"/>
<path d="M72.125 28.5312H74.9375C75.7123 28.5312 76.3438 29.1627 76.3438 29.9375H79.1562C79.1562 27.6116 77.2634 25.7188 74.9375 25.7188V22.9062H72.125V25.7188C69.7991 25.7188 67.9062 27.6116 67.9062 29.9375C67.9062 32.2634 69.7991 34.1562 72.125 34.1562H74.9375C75.7123 34.1562 76.3438 34.7877 76.3438 35.5625C76.3438 36.3373 75.7123 36.9688 74.9375 36.9688H72.125C71.3502 36.9688 70.7188 36.3373 70.7188 35.5625H67.9062C67.9062 37.8884 69.7991 39.7812 72.125 39.7812V42.5938H74.9375V39.7812C77.2634 39.7812 79.1562 37.8884 79.1562 35.5625C79.1562 33.2366 77.2634 31.3438 74.9375 31.3438H72.125C71.3502 31.3438 70.7188 30.7123 70.7188 29.9375C70.7188 29.1627 71.3502 28.5312 72.125 28.5312Z" fill="#16322E"/>
<path d="M84.7812 25.7188L79.6062 18.8197L81.7972 16.6288C82.8153 15.612 83.375 14.2592 83.375 12.822C83.375 9.85203 80.9605 7.4375 77.9905 7.4375H74.6956C72.5764 7.4375 70.7567 8.67922 69.8792 10.4638C69.5192 10.333 69.1353 10.25 68.7303 10.25H67.0822C65.2105 10.25 63.6875 11.773 63.6875 13.6447C63.6875 14.5517 64.0405 15.4039 64.6817 16.0452L67.4563 18.8197L62.2812 25.7188C60.4672 28.1375 59.4688 31.1342 59.4688 34.1562C59.4688 41.9103 65.7772 48.2188 73.5312 48.2188C81.2853 48.2188 87.5938 41.9103 87.5938 34.1562C87.5938 31.1342 86.5953 28.1375 84.7812 25.7188ZM66.5 13.6447C66.5 13.3241 66.7616 13.0625 67.0822 13.0625H68.7303C69.0509 13.0625 69.3125 13.3241 69.3125 13.6447V14.4688H72.125V13.6447V12.822C72.125 11.4031 73.2781 10.25 74.697 10.25H77.9919C79.4094 10.25 80.5625 11.4031 80.5625 12.822C80.5625 13.5083 80.2953 14.1537 79.8088 14.6403L77.1678 17.2812H69.8947L66.6702 14.0567C66.5619 13.9484 66.5 13.798 66.5 13.6447ZM73.5312 45.4062C67.3283 45.4062 62.2812 40.3592 62.2812 34.1562C62.2812 31.7389 63.08 29.3413 64.5312 27.4063L70.0156 20.0938H77.0469L82.5313 27.4063C83.9825 29.3398 84.7812 31.7389 84.7812 34.1562C84.7812 40.3592 79.7342 45.4062 73.5312 45.4062Z" fill="#16322E"/>
<path d="M46.8125 5.79078C46.8125 4.37188 47.9656 3.21875 49.3845 3.21875H49.8669C51.2844 3.21875 52.4375 4.37188 52.4375 5.79078C52.4375 6.47703 52.1703 7.1225 51.6838 7.60906L48.2188 11.0741V15.875H51.0312V12.2384L53.6722 9.5975C54.6903 8.58078 55.25 7.22797 55.25 5.79078C55.25 2.82078 52.8355 0.40625 49.8655 0.40625H49.3831C46.4145 0.40625 44 2.82078 44 5.79078V6.03125H46.8125V5.79078Z" fill="#16322E"/>
<path d="M31.3072 48.2187C31.8964 47.1584 32.6628 46.212 33.5572 45.4062H27.125V31.3437H15.875V45.4062H7.4375V28.5312H35.5625V43.9634C36.433 43.4797 37.3794 43.1168 38.375 42.8848V28.3315C40.7938 27.7029 42.5938 25.519 42.5938 22.9062V22.1693L24.8623 9.89419C22.8767 8.51887 20.1233 8.51887 18.1362 9.89419L0.40625 22.1722V22.909C0.40625 25.5218 2.20625 27.7043 4.625 28.3329V48.2187H31.3072ZM18.6875 34.1562H24.3125V45.4062H18.6875V34.1562ZM3.30172 23.5868L19.738 12.2061C20.78 11.4847 22.2214 11.4847 23.262 12.2061L39.6983 23.5854C39.3945 24.8103 38.2878 25.7187 36.9702 25.7187H6.02984C4.71359 25.7187 3.60547 24.8103 3.30172 23.5868Z" fill="#16322E"/>
</svg>
