<svg width="24" height="24" viewBox="0 0 24 24" fill="none" xmlns="http://www.w3.org/2000/svg">
<g clip-path="url(#clip0_1_282)">
<path d="M22.5719 16.2672L23.9789 7.2837C24.1252 6.37208 23.5049 5.51431 22.5932 5.36759L3.60833 2.32044C2.6967 2.17415 1.83899 2.79444 1.69269 3.70607L1.01807 7.90732V16.215L22.5719 16.2672Z" fill="#146AA8"/>
<path d="M22.5934 5.36754L17.2012 4.50232C13.5797 10.0436 7.72528 13.8817 3.2356 16.2203L22.572 16.2672L23.979 7.28364C24.1253 6.37197 23.505 5.51425 22.5934 5.36754Z" fill="#126099"/>
<path d="M1.67198 7.48926H20.8997C21.823 7.48926 22.5717 8.2379 22.5717 9.16124V20.0291C22.5717 20.9524 21.823 21.7011 20.8997 21.7011H1.67198C0.748639 21.701 0 20.9524 0 20.0291V9.16124C0 8.2379 0.748639 7.48926 1.67198 7.48926Z" fill="#4398D1"/>
<path d="M20.8993 7.48926H20.5649C16.619 14.4944 9.24609 19.2997 4.74512 21.701H20.8993C21.8227 21.701 22.5713 20.9524 22.5713 20.029V9.16124C22.5713 8.2379 21.8227 7.48926 20.8993 7.48926Z" fill="#3E8CC7"/>
<path d="M6.26977 9.57935H2.08984V12.9233H6.26977V9.57935Z" fill="#FDB62F"/>
<path d="M3.34384 10.8333H2.08984V11.6692H3.34384V10.8333Z" fill="#FD7B2F"/>
<path d="M6.27011 10.8333H5.01611V11.6692H6.27011V10.8333Z" fill="#FD7B2F"/>
<path d="M18.3916 19.6111C19.5459 19.6111 20.4816 18.6754 20.4816 17.5211C20.4816 16.3669 19.5459 15.4312 18.3916 15.4312C17.2373 15.4312 16.3016 16.3669 16.3016 17.5211C16.3016 18.6754 17.2373 19.6111 18.3916 19.6111Z" fill="#FDB62F"/>
<path d="M15.884 19.6111C17.0383 19.6111 17.974 18.6754 17.974 17.5211C17.974 16.3669 17.0383 15.4312 15.884 15.4312C14.7298 15.4312 13.7941 16.3669 13.7941 17.5211C13.7941 18.6754 14.7298 19.6111 15.884 19.6111Z" fill="#DE4C3C"/>
<path d="M4.17995 15.8492H1.672V16.6852H4.17995V15.8492Z" fill="#87CED9"/>
<path d="M8.35963 15.8492H5.85168V16.6852H8.35963V15.8492Z" fill="#87CED9"/>
<path d="M12.5401 15.8492H10.0321V16.6852H12.5401V15.8492Z" fill="#87CED9"/>
<path d="M12.5398 18.3572H1.672V19.1931H12.5398V18.3572Z" fill="#87CED9"/>
<path d="M15.4657 9.57935H14.6298V11.2513H15.4657V9.57935Z" fill="#87CED9"/>
<path d="M17.1377 9.57935H16.3018V11.2513H17.1377V9.57935Z" fill="#87CED9"/>
<path d="M18.8096 9.57935H17.9736V11.2513H18.8096V9.57935Z" fill="#87CED9"/>
<path d="M20.4815 9.57935H19.6455V11.2513H20.4815V9.57935Z" fill="#87CED9"/>
</g>
<defs>
<clipPath id="clip0_1_282">
<rect width="24" height="24" fill="white"/>
</clipPath>
</defs>
</svg>
